<?xml version="1.0" encoding="UTF-8" standalone="no"?>
<!DOCTYPE svg PUBLIC "-//W3C//DTD SVG 1.1//EN" "http://www.w3.org/Graphics/SVG/1.1/DTD/svg11.dtd">
<svg width="100%" height="100%" viewBox="0 0 2000 1338" version="1.1" xmlns="http://www.w3.org/2000/svg" xmlns:xlink="http://www.w3.org/1999/xlink" xml:space="preserve" xmlns:serif="http://www.serif.com/" style="fill-rule:evenodd;clip-rule:evenodd;stroke-linecap:round;stroke-linejoin:round;stroke-miterlimit:1.5;">
    <path id="veikkolan-lukko" d="M13.104,1144.73C16.355,1122.12 204.294,636.547 218.203,614.275C232.112,592.003 485.519,322.047 496.389,310.101C507.259,298.156 654.793,145.727 654.793,145.727" style="fill:none;stroke:rgb(255,0,0);stroke-width:8.33px;"/>
    <path id="jerry-cotton" d="M408.607,1173.97C415.894,1146.82 619.585,682.734 633.53,657.931C647.476,633.127 844.17,294.059 859.191,276.047C874.212,258.035 955.716,125.848 955.716,125.848" style="fill:none;stroke:rgb(255,0,0);stroke-width:8.33px;"/>
    <path id="lady-layback" d="M700.95,1234.88C708.086,1204.64 891.022,659.749 897.384,648.777C903.747,637.804 982.52,491.007 989.245,478.771C995.97,466.536 1152.22,274.077 1157.6,261.304C1162.98,248.531 1188.61,204.386 1188.08,185.159C1187.56,165.933 1190.67,118.99 1190.67,118.99" style="fill:none;stroke:rgb(255,0,0);stroke-width:8.33px;"/>
    <path id="hans-dulfer" d="M1023.95,1271.69C1029.9,1243.05 1152.81,1058.17 1176.84,1035.18C1200.88,1012.2 1297.93,831.336 1276.78,782.947C1255.63,734.559 1125,640.422 1126.2,614.56C1127.41,588.698 1256.6,546.355 1264.52,525.809C1272.44,505.262 1334.12,380.119 1340.56,359.56C1347.01,339.002 1344.15,287.691 1366.98,275.8C1389.81,263.909 1451.37,226.38 1462.49,215.951C1473.61,205.521 1507.13,185.858 1503.51,162.265C1499.88,138.672 1489.26,139.55 1489.26,139.55" style="fill:none;stroke:rgb(255,0,0);stroke-width:8.33px;"/>
</svg>
