<?xml version="1.0" encoding="UTF-8" standalone="no"?>
<!DOCTYPE svg PUBLIC "-//W3C//DTD SVG 1.1//EN" "http://www.w3.org/Graphics/SVG/1.1/DTD/svg11.dtd">
<svg width="100%" height="100%" viewBox="0 0 1364 1043" version="1.1" xmlns="http://www.w3.org/2000/svg" xmlns:xlink="http://www.w3.org/1999/xlink" xml:space="preserve" xmlns:serif="http://www.serif.com/" style="fill-rule:evenodd;clip-rule:evenodd;stroke-linecap:round;stroke-linejoin:round;stroke-miterlimit:1.5;">
    <path id="tiukka-layback" d="M79.957,899.011C85.345,860.62 183.567,567.483 190.522,553.198C197.476,538.913 387.655,350.452 402.473,337.021C417.291,323.59 535.613,151.701 545.769,136.392C555.924,121.083 574.279,68.812 579.584,58.362" style="fill:none;stroke:rgb(255,0,0);stroke-width:8.33px;"/>
    <path id="hennes-dulfer" d="M316.914,942.83C316.914,942.83 365.952,833.805 391.681,787.37C395.354,780.74 427.283,734.917 428.429,733.263C447.569,705.648 538.544,590.469 556.462,561.549C571.502,537.273 618.867,432.08 650.316,334.006C678.217,247.001 679.185,196.801 697.691,156.065C707.728,133.971 758.744,67.888 758.248,48.56" style="fill:none;stroke:rgb(255,0,0);stroke-width:8.33px;"/>
    <path id="veikkolan-lukko" d="M745.805,965.521C745.805,965.521 778.307,557.323 776.46,532.046C774.614,506.769 752.755,261.425 750.784,244.779C748.814,228.133 786.377,149.446 794.677,144.463C802.977,139.479 837.339,132.8 845.745,125.299C854.151,117.799 840.008,74.043 831.869,60.709" style="fill:none;stroke:rgb(255,0,0);stroke-width:8.33px;"/>
    <path id="jerry-cotton" d="M1113.03,957.331C1113.89,932.188 1154.04,727.93 1159.3,709.079C1164.57,690.229 1190.71,586.481 1188.72,561.907C1186.73,537.333 1169.87,398.047 1167.23,380.436C1164.6,362.826 1111.17,316.723 1111.17,316.723C1111.17,316.723 1102.62,205.511 1098.06,193.353C1093.5,181.195 1041.55,135.767 1031.61,125.69" style="fill:none;stroke:rgb(255,0,0);stroke-width:8.33px;"/>
    <path id="lady-layback" d="M1288.98,929.124C1285.08,884.753 1248.59,539.023 1241.22,516.342C1233.85,493.66 1239.81,421.555 1234.45,401.57C1229.09,381.585 1193.44,305.971 1184.74,284.019C1176.04,262.068 1160.31,212.47 1151.33,196.063C1142.36,179.656 1130.46,146.934 1127.03,137.077" style="fill:none;stroke:rgb(255,0,0);stroke-width:8.33px;"/>
</svg>
