<?xml version="1.0" encoding="UTF-8" standalone="no"?>
<!DOCTYPE svg PUBLIC "-//W3C//DTD SVG 1.1//EN" "http://www.w3.org/Graphics/SVG/1.1/DTD/svg11.dtd">
<svg width="100%" height="100%" viewBox="0 0 1553 1354" version="1.1" xmlns="http://www.w3.org/2000/svg" xmlns:xlink="http://www.w3.org/1999/xlink" xml:space="preserve" xmlns:serif="http://www.serif.com/" style="fill-rule:evenodd;clip-rule:evenodd;stroke-linecap:round;stroke-linejoin:round;stroke-miterlimit:1.5;">
    <path id="lady-layback" d="M424.78,1338.48C424.78,1338.48 539.249,592.035 542.04,565.828C544.831,539.622 572.475,448.074 583.542,439.815C594.609,431.556 687.558,327.481 691.905,309.216C696.252,290.952 687.761,238.753 682.263,229.135" style="fill:none;stroke:rgb(255,0,0);stroke-width:8.33px;"/>
    <g id="hans-dulfer" transform="matrix(1,0,0,1,0,1)">
        <path d="M489.46,1343.42C572.886,1237.96 920.227,931.999 990.722,880.668C1028.47,853.179 778.374,610.795 731.534,550.241C722.651,538.758 818.753,486.82 849.933,461.681C881.113,436.541 890.593,384.343 895.471,360.795C900.349,337.248 922.477,282.61 922.477,282.61" style="fill:none;stroke:rgb(255,0,0);stroke-width:8.33px;"/>
    </g>
</svg>
